<?xml version="1.0" standalone="no"?>
<!DOCTYPE svg PUBLIC "-//W3C//DTD SVG 20010904//EN"
 "http://www.w3.org/TR/2001/REC-SVG-20010904/DTD/svg10.dtd">
<svg version="1.0" xmlns="http://www.w3.org/2000/svg"
 width="537.000000pt" height="537.000000pt" viewBox="0 0 537.000000 537.000000"
 preserveAspectRatio="xMidYMid meet">
<metadata>
Created by potrace 1.14, written by Peter Selinger 2001-2017
</metadata>
<g transform="translate(0.000000,537.000000) scale(0.100000,-0.100000)"
fill="#000000" stroke="none">
<path d="M1360 4224 c-14 -2 -63 -9 -110 -15 -252 -34 -506 -161 -641 -320
-131 -155 -189 -287 -209 -472 -19 -172 17 -348 96 -479 157 -258 382 -368
1053 -513 240 -51 321 -106 321 -215 0 -114 -112 -173 -326 -172 -252 1 -417
101 -485 295 l-14 39 -45 -7 c-25 -4 -88 -15 -140 -26 -52 -11 -207 -40 -345
-65 -137 -25 -252 -47 -253 -49 -6 -6 26 -97 68 -195 193 -452 656 -679 1303
-639 485 30 849 229 1012 554 62 124 77 186 82 347 6 152 -8 243 -54 353 -58
138 -192 291 -323 367 -111 65 -393 149 -750 223 -139 29 -265 67 -298 91 -30
21 -62 86 -62 125 0 86 67 142 192 159 225 31 434 -63 504 -227 8 -17 18 -34
22 -37 5 -3 105 24 223 61 118 36 273 83 344 105 72 22 132 42 133 43 2 2 -15
40 -38 86 -203 403 -553 592 -1090 587 -80 0 -156 -2 -170 -4z"/>
<path d="M2930 2810 l0 -1381 803 3 c856 4 845 3 1027 55 179 50 299 154 389
336 66 134 92 243 92 390 0 171 -27 274 -101 385 -67 100 -200 194 -347 243
l-65 22 54 22 c142 58 220 122 293 239 74 120 89 178 90 341 0 153 -11 206
-66 320 -114 233 -304 359 -599 395 -51 6 -376 10 -827 10 l-743 0 0 -1380z
m1294 766 c107 -32 151 -101 144 -225 -3 -58 -9 -77 -34 -113 -38 -54 -82 -84
-145 -97 -64 -14 -466 -15 -474 -1 -3 6 -3 109 1 230 l7 220 227 0 c167 0 239
-4 274 -14z m24 -1051 c171 -51 230 -275 106 -399 -16 -16 -54 -41 -84 -55
-54 -25 -60 -26 -299 -29 -154 -3 -247 0 -253 6 -7 7 -8 94 -3 251 l8 241 236
0 c185 0 249 -3 289 -15z"/>
</g>
</svg>
